<?xml version="1.0" encoding="UTF-8"?>
<svg xmlns="http://www.w3.org/2000/svg" xmlns:xlink="http://www.w3.org/1999/xlink" width="375pt" height="374.999991pt" viewBox="0 0 375 374.999991" version="1.2">
<g id="surface1">
<path style=" stroke:none;fill-rule:nonzero;fill:rgb(0%,0%,0%);fill-opacity:1;" d="M 205.644531 254.03125 C 205.644531 260.695312 200.210938 266.128906 193.546875 266.128906 L 175.402344 266.128906 L 175.402344 241.933594 L 193.546875 241.933594 C 200.210938 241.933594 205.644531 247.371094 205.644531 254.03125 Z M 193.546875 302.417969 L 175.402344 302.417969 L 175.402344 278.226562 L 193.546875 278.226562 C 200.210938 278.226562 205.644531 283.660156 205.644531 290.324219 C 205.644531 296.984375 200.210938 302.417969 193.546875 302.417969 Z M 181.453125 217.742188 L 181.453125 229.839844 L 163.304688 229.839844 L 163.304688 314.515625 L 181.453125 314.515625 L 181.453125 326.613281 L 193.546875 326.613281 L 193.546875 314.515625 C 206.898438 314.515625 217.742188 303.671875 217.742188 290.324219 C 217.742188 283.09375 214.550781 276.621094 209.542969 272.175781 C 214.550781 267.734375 217.742188 261.261719 217.742188 254.03125 C 217.742188 240.683594 206.898438 229.839844 193.546875 229.839844 L 193.546875 217.742188 L 181.453125 217.742188 "/>
<path style=" stroke:none;fill-rule:nonzero;fill:rgb(0%,0%,0%);fill-opacity:1;" d="M 279.335938 241.886719 C 267.40625 205.808594 234.824219 179.089844 195.628906 175.828125 C 194.28125 169.757812 193.546875 163.542969 193.546875 157.257812 C 193.546875 110.570312 231.539062 72.582031 278.226562 72.582031 C 324.910156 72.582031 362.902344 110.570312 362.902344 157.257812 C 362.902344 203.566406 325.527344 241.273438 279.335938 241.886719 Z M 187.5 356.855469 C 140.8125 356.855469 102.824219 318.863281 102.824219 272.175781 C 102.824219 225.492188 140.8125 187.5 187.5 187.5 C 234.1875 187.5 272.175781 225.492188 272.175781 272.175781 C 272.175781 318.863281 234.1875 356.855469 187.5 356.855469 Z M 12.402344 163.304688 L 46.070312 163.304688 L 58.59375 138.285156 L 77.304688 213.160156 L 103.011719 148.871094 L 120.542969 189.769531 L 136.796875 157.257812 L 181.453125 157.257812 C 181.453125 163.519531 180.71875 169.757812 179.371094 175.804688 C 140.175781 179.089844 107.59375 205.808594 95.664062 241.886719 C 51.53125 241.296875 15.5 206.804688 12.402344 163.304688 Z M 96.773438 72.582031 C 139.347656 72.582031 174.578125 104.191406 180.484375 145.160156 L 129.332031 145.160156 L 121.394531 161.039062 L 102.632812 117.257812 L 79.953125 173.9375 L 62.398438 103.648438 L 38.605469 151.210938 L 12.402344 151.210938 C 15.523438 107.335938 52.121094 72.582031 96.773438 72.582031 Z M 375 157.257812 C 375 103.886719 331.597656 60.484375 278.226562 60.484375 C 265.398438 60.484375 253.15625 63.058594 241.933594 67.59375 L 241.933594 48.386719 L 229.839844 48.386719 L 229.839844 73.574219 C 225.585938 76.03125 221.546875 78.769531 217.742188 81.84375 L 217.742188 36.289062 L 205.644531 36.289062 L 205.644531 93.464844 C 201.039062 98.6875 196.949219 104.382812 193.546875 110.523438 L 193.546875 0 L 181.453125 0 L 181.453125 110.523438 C 178.050781 104.382812 173.960938 98.6875 169.355469 93.464844 L 169.355469 36.289062 L 157.257812 36.289062 L 157.257812 81.84375 C 153.453125 78.769531 149.414062 76.03125 145.160156 73.574219 L 145.160156 48.386719 L 133.066406 48.386719 L 133.066406 67.59375 C 121.84375 63.058594 109.601562 60.484375 96.773438 60.484375 C 43.402344 60.484375 0 103.886719 0 157.257812 C 0 178.214844 6.78125 197.589844 18.144531 213.464844 L 18.144531 296.371094 L 30.242188 296.371094 L 30.242188 227.359375 C 34.023438 230.925781 38.039062 234.257812 42.339844 237.210938 L 42.339844 320.566406 L 54.433594 320.566406 L 54.433594 244.132812 C 58.332031 246.046875 62.351562 247.746094 66.53125 249.117188 L 66.53125 350.804688 L 78.628906 350.804688 L 78.628906 252.261719 C 83.140625 253.132812 87.796875 253.605469 92.519531 253.820312 C 91.363281 259.773438 90.726562 265.894531 90.726562 272.175781 C 90.726562 325.550781 134.128906 368.953125 187.5 368.953125 C 240.871094 368.953125 284.273438 325.550781 284.273438 272.175781 C 284.273438 265.894531 283.636719 259.773438 282.480469 253.820312 C 287.203125 253.605469 291.859375 253.132812 296.371094 252.261719 L 296.371094 350.804688 L 308.46875 350.804688 L 308.46875 249.117188 C 312.648438 247.746094 316.667969 246.046875 320.566406 244.132812 L 320.566406 320.566406 L 332.660156 320.566406 L 332.660156 237.210938 C 336.984375 234.257812 340.976562 230.925781 344.757812 227.359375 L 344.757812 296.371094 L 356.855469 296.371094 L 356.855469 213.464844 C 368.21875 197.589844 375 178.214844 375 157.257812 "/>
<path style=" stroke:none;fill-rule:nonzero;fill:rgb(0%,0%,0%);fill-opacity:1;" d="M 187.5 199.597656 C 170.558594 199.597656 154.070312 205.574219 141.074219 216.417969 L 148.800781 225.703125 C 159.644531 216.679688 173.394531 211.695312 187.5 211.695312 C 220.859375 211.695312 247.984375 238.816406 247.984375 272.175781 C 247.984375 286.28125 243 300.03125 233.972656 310.878906 L 243.257812 318.628906 C 254.101562 305.609375 260.082031 289.117188 260.082031 272.175781 C 260.082031 232.152344 227.523438 199.597656 187.5 199.597656 "/>
<path style=" stroke:none;fill-rule:nonzero;fill:rgb(0%,0%,0%);fill-opacity:1;" d="M 187.5 332.660156 C 154.140625 332.660156 127.015625 305.539062 127.015625 272.175781 C 127.015625 258.074219 132 244.320312 141.027344 233.476562 L 131.742188 225.726562 C 120.898438 238.746094 114.917969 255.238281 114.917969 272.175781 C 114.917969 312.199219 147.476562 344.757812 187.5 344.757812 C 204.441406 344.757812 220.929688 338.78125 233.925781 327.9375 L 226.199219 318.652344 C 215.355469 327.675781 201.605469 332.660156 187.5 332.660156 "/>
<path style=" stroke:none;fill-rule:nonzero;fill:rgb(0%,0%,0%);fill-opacity:1;" d="M 284.273438 160.96875 L 284.273438 122.785156 L 305.089844 154.019531 Z M 284.273438 173.703125 L 299.703125 168.574219 L 284.273438 191.730469 Z M 272.175781 173.703125 L 272.175781 191.730469 L 256.75 168.574219 Z M 272.175781 160.96875 L 251.363281 154.019531 L 272.175781 122.785156 Z M 234.660156 157.257812 L 278.226562 222.585938 L 321.792969 157.257812 L 278.226562 91.929688 L 234.660156 157.257812 "/>
<path style=" stroke:none;fill-rule:nonzero;fill:rgb(0%,0%,0%);fill-opacity:1;" d="M 18.144531 320.566406 L 30.242188 320.566406 L 30.242188 308.46875 L 18.144531 308.46875 L 18.144531 320.566406 "/>
<path style=" stroke:none;fill-rule:nonzero;fill:rgb(0%,0%,0%);fill-opacity:1;" d="M 42.339844 344.757812 L 54.433594 344.757812 L 54.433594 332.660156 L 42.339844 332.660156 L 42.339844 344.757812 "/>
<path style=" stroke:none;fill-rule:nonzero;fill:rgb(0%,0%,0%);fill-opacity:1;" d="M 66.53125 375 L 78.628906 375 L 78.628906 362.902344 L 66.53125 362.902344 L 66.53125 375 "/>
<path style=" stroke:none;fill-rule:nonzero;fill:rgb(0%,0%,0%);fill-opacity:1;" d="M 344.757812 320.566406 L 356.855469 320.566406 L 356.855469 308.46875 L 344.757812 308.46875 L 344.757812 320.566406 "/>
<path style=" stroke:none;fill-rule:nonzero;fill:rgb(0%,0%,0%);fill-opacity:1;" d="M 320.566406 344.757812 L 332.660156 344.757812 L 332.660156 332.660156 L 320.566406 332.660156 L 320.566406 344.757812 "/>
<path style=" stroke:none;fill-rule:nonzero;fill:rgb(0%,0%,0%);fill-opacity:1;" d="M 296.371094 375 L 308.46875 375 L 308.46875 362.902344 L 296.371094 362.902344 L 296.371094 375 "/>
<path style=" stroke:none;fill-rule:nonzero;fill:rgb(0%,0%,0%);fill-opacity:1;" d="M 169.355469 12.097656 L 157.257812 12.097656 L 157.257812 24.195312 L 169.355469 24.195312 L 169.355469 12.097656 "/>
<path style=" stroke:none;fill-rule:nonzero;fill:rgb(0%,0%,0%);fill-opacity:1;" d="M 217.742188 12.097656 L 205.644531 12.097656 L 205.644531 24.195312 L 217.742188 24.195312 L 217.742188 12.097656 "/>
</g>
</svg>
